<svg height="825" viewBox="0 0 1562 825" width="1562" xmlns="http://www.w3.org/2000/svg"><path d="m117 561.14-14 .12-10-1.98-9-3.83-7-5.15-5.45-7.3-2.62-7-.54-9 3.08-11 6.53-7.39 4-2.19 2 .58.13 2-3.74 6-.83 7 2.21 8 3.23 5.35 7 5.85 8 3.6 8 1.68 9 .13 15.48-3.61 12.36-6 16.16-11.99 13.31-14.01 8.86-12 9.99-16 19.14-40 22.98-63 21.15-65 4.93-18-25.36-5.08-28-2.12-25.99 1.2-27.01 5.02-25 8.56-22 11.19-20 14.2-17 17.66-14 21.5-9 22.02-3.06 14.85-.81 10-.01 10 1.83 14 6.01 18 6.93 11 11.11 9.46 6 2.82 8 2.02 8 .1 5-1.24 6-2.69 5.09-4.47 1.91-4 .16-5-1.16-1.33-5-1.02-2.57-3.65.2-4 3.37-4.4 4-1.86 5-.27 4 1.14 4.67 3.39 2.8 4 1.68 6-.68 8-1.91 5-3.17 5-6.39 6.42-6 4.07-9 3.98-7 1.96-10 .94-10-.65-9-2.05-10-4.15-8-5.15-7.04-6.37-7.29-9-7.13-13-2.89-8-4.03-22 .06-9 1.94-16 7.15-24 17.04-30 22.37-24 12.82-10.4 17-11.08 19-9.8 12-4.99 18-6 18-4.11 31-3.4 33 1.3 16 2.16 22 4.92.83-.6 1.56-5-.35-3-3.04-4.09-4.45-2.91 10.45-5.73 5.11-6.27 31.03-96 3.31-12 2.02-13-.38-9-1.97-8-4.12-7.83-6.32-7.17-8.68-6.27-10-5.12-20.49-6.61-25.51-3.14-22 1.71-12 2.98-11 4.38-12 6.53-10 7.46-11.01 11.08-9.21 13-6.22 14-2.91 11-1.07 17 2.12 12 4.11 12 8.98 14 11.21 10.12 14 7.04 11 2.32 13-.17 10-3.08 6.82-4.23 5.48-6 2.92-7-.07-6-1.07-3-2.08-2.04-3-.28-3 1.86-4 .01-4-2.23-1.6-2.32-.86-5 .93-3 3.53-4.18 8-3.43 6-.03 5 1.27 8.44 6.37 5.05 10v12l-2.29 6-5.98 9-7.22 6.53-9 5.04-9 2.94-12 1.96-9 .11-18-3.01-11-4.04-11-6.14-14.33-12.39-6.14-8-4.97-9-3.95-10-2.17-10 .02-18 1.94-9 4.16-11 9.13-16 9.49-12 9.82-9.76 8-6.6 15-9.34 24-9.87 14-3.2 15-1.68 11 .09 19 2.05 25 6.16 23 8.45 46.4 20.7 19.6 6.06 13 1.83 8.54.11 16.46-1.89 10-2.78 1.53 1.67-1.53 2.3-18 8.49-6.29 5.21-3.81 5-4.33 12-.82 10 .89 11 7.92 40 26.09 117 13.05 52 6.3 13.79 5.69 7.21 7.31 5.22 9 2.49 1.09 2.29-2.09 1.55-51-1.69-36 1.75-2.95-1.61 1.95-2.43 7.87-2.57 4.13-4.08 3.09-6.92.64-8-2.73-18.49-15.38-65.51-4.62 2.93-10 9.07-11.15 15-4.8 12 1.72 12-.93 8-2.23 5-4.61 4.52-2.02-1.52 2.09-3 1.55-5-.44-10-3.01-8-5.17-7.98-8.64-9.02-9.36-7.13-12-7-13-5.84-2 3.03-26.55 77.94-14.89 40-18.08 41-18.23 32-9.83 14-9.35 11-8.07 8.28-14 11.5-10 6.5-13 6.05-12 3.76zm543 244.92-15 .29-17-1.92-31-7.26-19-6.98-19-8.87-31-19.06-25-20.52-23.36-24.74-22.12-30-33.52-53.88-17.92-22.12-11.1-10-14.98-9.24-11-3.8-8-1.25-5 .56-2.69-1.27.22-2 2.47-1.55 16.47-4.45 17.41-7 8.63-5 9.17-7 7.37-8 7.04-11 4.91-12.21 3-13.51 1.09-14.28-1.09-14.29-2.91-12.71-6.06-12-8.11-9-10.92-7.19-13.54-4.81-13.46-2.28-17 1.01-7 2.06-2.6 2.21-1.79 5-1.33 10-1.16 25 .88 53.59 3.85 9.41 7.77 8-5.62 3.99-4.01 5.01-2.59 9 .17 95 1.07 29 2.36 11.67 4 6.38 7 4 12 .46 1.31 2.49-2.31 1.8-18.38 4.2-11.06 5-12.56 7.8-27 19.46-13 7.02-13 4.53-11 .18-.65-.99.65-1.59 7.96-3.41 7.04-5.65 8.32-11.35 6.14-16 3.87-21 1.57-28 .2-44-1.78-62-2.13-8-4.19-5.72-6-4.58-8-2.14-.6-1.56 11.76-11 1.61-6 6.5-9 1.46-8 .31-37-2.63-22-5.07-12-6.34-6.19-7-3.89-9-1.99-7 .45-2-.97-.27-1.41 3.27-2.28 5-1.14 30 1.75 14.93-1.33 44.07-7.42 30-.83 18 1.9 20 5.08 19 8.81 12.9 9.46 9.42 10 4.06 6 4.94 10 3.07 10 1.03 6 .05 15-4.17 18-4 9-7.08 11-14.22 14.15-17 11.27-24.6 9.58 8.6 3.44 11 6.13 13 9.93 11.3 11.5 16.03 21 36.67 59 16.82 22 14.11 16 27.07 24.36 17.08 11.64 14.62 8 21.12 9 13.18 4 18 3.87 21 1.28 20-1.97 21-6.18 8-3.95 8.79-6.05 5.21-5.08 5.05-8.92.75-4-.62-7-2.85-5 1.67-1.19 5.44 4.19 3.09 8-1.18 11-7.06 12-10.29 9.37-11 6.82-18 7.08-17 4.04zm16-378.05-19-1.57-16-5.01-14-7.15-15-11.01-14.3-15.27-19.01-25-10.06-17-12.63-25.92-6.86-11.08-8.44-8-9.7-4.21-10-.78-1.42.99.76 51 1.37 22 1.92 8 2.37 4.25 7.45 5.75 8.55 2.28.46 2.72-2.46.84-12-.02-34-1.27-28 1.93-2-.04-1.97-1.44-.4-1 1.37-1.67 8-2.1 6-4.54 3.07-4.69 2.14-9 .88-18-1.84-50-2.25-4.48-3-2.96-4-1.98-6-1.03-1.56-1.55 11.53-8 4.25-7 .81-7-.73-45-2.3-15.82-4.82-10.18-4.28-4-5.9-3.15-4-1.07-9-.23-.86-1.55.86-1.49 7-2.36 30 .3 43-3.09 30 1.22 12 2.07 12 3.86 12 6.19 10.33 8.3 9.04 12 3.22 7 2.26 9 .1 14-4.44 15-8.95 13-12.56 10.39-11 5.9-19.46 5.71 13.46 8.55 10.27 10.45 10.08 14 11.65 21.7 9.56 15.3 20.44 25.93 14 13.35 9.33 5.72 7.67 3.29 8 2.03 8 .4 7-.68 8.15-4.04 2.85-4.43v-2.91l-1.67-3.66 1.67-1.53 3 1.04 2.5 2.49 1.93 4-.1 5-4.11 7-4.22 3.5-5 2.84-9 3.08zm145-244.42-1 .34-4.94-6.93-5.06-4.18-17-7.47-10-6.21-11.5-11.14-5.88-9-3.96-10-2.66-17.17-5 .73-6 2.4-7.03 6.04-3.19 7-.37 10-2.03 8-6.12 9-9.26 6.35-6 1.96-7 .55-6-.54-6-2.13-7.72-6.19-2.8-7 2.02-8 5.5-4.49 6-.19 3 1.45 2 3.23-.32 3-2.68 2.42-4-.96-1.77.54-1.16 3 .73 3 5.26 5 2.94 1.23 7 .67 9-2.65 7.1-6.25 3.19-6 .9-10-3.18-9-7.01-8.25-8-5.2-13-3.91-16-.93-22 4.04-31 10.91-41 17.69-30 11.03-24 6.1-25 3.02-11 .01-17-2.15-13-4-8-3.92-8.11-6.44-6.23-8-3.05-8-.27-11 2.36-7 4.12-6 9.18-6.64 6-1.89 6-.38 10 2.38 4.79 3.53 3.76 5 .97 7-1.96 5-2.56 2.45-3-.13-4.61-4.32-.39-3.81-7-6.8-2-.75-5 .85-6.25 4.51-3.75 6.28-.71 6.72 1.36 7 7.35 10.05 12 7.05 16.25 3.9 15.75.71 20-1.64 28-6.92 28-10.05 52-21.64 20-6.8 15-3.26 17-1.34 14 1.37 11 2.91 13 6.81 5-3.05 3-4.54 2-12.58 1.95 1.02 3.89 7 6.16 6.19 6.62 3.81 7.38 2.03 4.68-17.03 3.94-8 5.09-7 9.29-9.41 20.67-14.59 8.53-10 4.86-10 3.94-15.48 1.41.48 4.55 19 5.74 10 9.3 9.37 19 13.72 11.41 13.91 5.28 11 3.31 14.39 7.53-1.39 8.47-4.98 5.18-5.02 3.98-7 1.84-.76 1.06 9.76 2.79 6 3.41 3 9.74 4.37 6-3.04 4-5.17 11-2.83 21-.98 19 2.03 29 8.11 75.13 29.51 22.87 6.11 21 2.29 18-.39 16-3.94 11-6.9 6.09-9.17 1.29-9-1.89-7-3.7-5-6.79-4.14-8-.41-5.56 3.55-1.27 3 .27 2 3.2 2 1.2 2-.12 2-2.72 2.51-4 .86-6.14-3.37-2.85-6 .54-6 2.99-5 5.46-4.44 6-2.21 6-.52 8 1.64 6 2.88 5.66 4.65 3.81 5 3.75 11-.59 10-2.05 6-6.58 8.97-8 6.3-9 4.23-14 3.7-10 1.18-19 .07-24-3.14-20-4.93-24-7.99-50-20.7-26-8.81-24-4.09-19 .95-11 3.81-7.7 5.45-5.42 7-3.03 9 .74 9 3.41 6.59 6 5.54 9 3.02 3.93-.15 5.07-1.77 5.16-5.23.59-3-.75-2.03-2-1.25-4 .97-2.79-2.69.34-3 2.45-2.56 6-.92 4 1.81 3.45 3.67 1.17 8-1.38 4-2.48 3-6.76 4.4-11 1.96-6-1.36 2.09-1-14.09-4.91-2.89-2.09-3.11-4.04-3.13-6.96-.74-11-5.13-11.96-3-3.31-5-3.22-10-3.12-1.25.61-.4 8-3.94 14-2.87 6-7.11 10-13.43 11.42-22 10.32-5 4.29zm637 535.45-17 .21-22-3.53-20-6.39-30.31-12.33-18.69-5.28-16-.9-7 1.12-7 2.68-1.53-.62-.15-2 3.68-4.19 10-5.4 4.1-3.41 3.13-5 1.87-7 1.14-14-.63-79-1.55-4-4.91-5 6-7 .49-2 .63-86-1.27-1.18-7-.04-22 1.16-7.56 2.06-9.38 6-4.33 5-5.16 11-2 12 1.22 12-.79 1.78-2 .36-3.4-4.14-4-15-1.3-10-.27-23-4.34-15 1.31-1.69 72 2.75 76-.06 40-1.9 16-1.65 15-3.06 1.73.61.4 1-1.13 1.3-18 8.52-8.17 7.18-2.83 6.46-3.25 17.54-4.01 11-7.2 14-3.54 4.61-3 2.15-2.45-1.76 3.69-12 .2-11-3.44-11-6-8.01-8-5.13-10-2.91-11-1.17-21-.02-.99 1.24-.43 155 1.15 25 2.07 14 3.04 9 5.04 8 6.12 6.23 12 8.22 10 4.71 9.1 2.84 17.9 2.6 19-1.26 16-4.84 14-8.21 7.16-6.29 6.93-8 8.91-15.82 5.35-18.18 1.21-18-.94-10-2.62-11.19-6.81-14.81-10.19-12-12-7.18-13-2.87-11 1.8-8 3.97-4.31 4.28-2.69 4.72-1.14 6.28 1.12 4 3.02 3.17 2 .29 6-2.17 4 2.18 1.93 3.53-.55 5-1.83 3-4.55 3.26-6 1.12-6-1.19-6-3.79-4.44-5.4-2.11-5-.77-9 2.02-8 4.01-7 10.29-9.43 10-4.28 13-2.18 14 1.36 12 3.86 8 4.32 11.11 9.35 10.33 14 5.81 13 3.02 12 1.06 10-1.06 20-5.02 18-3.98 9-6.07 10-13.2 14.72-16 11.68-8 4.06-12 4.24zm-55-288.95-16 .35-28-4.06-55-15.51-26-5.99-22-2.48-15 .46-12 2.52-1.61-1.38 4.61-4.46 15.84-5.54 7.16-5.75 4.06-8.25 1.54-16-.41-70-.98-4-3.21-3.12-6-1.72-7 .55-9 3-1.4-1.71 7.4-7.43 15-7.18 4.59-5.39.62-41-1.06-15-2.15-8.42-4-6.67-5-4.2-4-1.86-10-1.28-1.61-1.57 1.61-2.38 6-1.44 82 .26 41-1.95 19-.25 2.33.76.15 2-2.63 5-2.1 9 .8 20-1.17 14-2.04 8-2.34 1.61-2.18-1.61-1.51-12-5.05-11-6.26-7.91-7-5.23-7-3.07-9-1.98-15-1.18-21.49.37.08 76 27.41.25 13-2.89 8-5.66 5-6.85 2.5-6.85 1.5-1.46 2 .16 1.31 2.3-.01 3-3.61 21 .02 7 5.68 21 .67 6-.58 6-2.48 1.95-1.46-.95-3.54-11.89-3.92-6.11-5.08-5.06-7-4.05-13.56-2.89-25.44-.62-.48 56.62.79 34 1.5 6 4.19 4.27 36 14.88 21 7.03 16.55 3.82 12.45 1.37 11.32-.37 13.68-2.78 9-3.96 7.56-5.26 7.62-8 4.05-7 3.14-11 .2-7-1.28-8-4.08-9-4.21-5.36-5-3.96-10-4.12-9-.75-13 3.69-8 7.55-2.27 5.95.1 4 3.17 4.14 5-1.43 5 2.08 1.86 4.21-.27 4-4.59 5.3-8 2.09-5-.93-4-2.03-5.25-5.43-2.97-9 .82-9 3.09-7 6.31-7.77 8-5.85 7-3.18 11-2.56 10-.28 12 2.21 8 3.19 12.61 9.24 4.73 6 4.27 8 2.57 9 .81 9-.55 8-2.91 11-4.87 9-4.76 6-5.9 5.55-10 6.87-18 6.89zm-373-35.76-48-1.74-35 1.79-1.69-1.38.69-2.01 8.69-2.99 4.57-4 2.05-4 .93-6-2.22-14-13.18-41h-1.77l-12.07 9.86-12 14.71-4-5.84-8.13-8.73-10.87-9-8-5-14 44.74-1.89 12.26.89 6.65 3.92 6.35 6.47 4 7.61 1.42 1.48 2.58-2.48 1.52-32-1.62-34 1.51-1.4-1.41.77-2 6.41-2 6.62-4 6.84-7 4.98-8 8.14-19 15.23-46-14.59-7.01-13.68-3.99-15.32-1.54-14 1.23-13.37 4.31-8.63 5.84-6.21 8.16-1.15 8-1.64 1.46-2.4-2.46-.5-3 1.46-9 5.89-9 9.55-8.31 9-4.88 13-3.97 11-1.29 17 1.14 12 3.09 16 7.55 1.01-.33 20.43-65 2.75-16-1.91-7-3.28-4.21-8-3.85-11-.08-1.36-1.86 2.36-2.32 5-2.13 4-.42 52 1.62 27-2.64 1.51.89-.19 2-8.79 6-3.53 7.23-.47 8.77 3.05 13 16.92 51 4.5 5.01 10.79 4.99-6.84 6-1.33 3-.05 4 21.18 62 6.1 11 5.76 7 8.77 7 9.99 5-.37 1.75zm165 255.19-43-2.99-35 .7-3.52-2.23 1.52-2.15 7-1.7 6.55-4.15 3.5-5 2.36-8 1.16-23-1.16-42-3.41-5.67-9-4.92-.53-1.41 9.53-7.21 3.15-6.79.64-38-1.51-19-3.28-9-4.53-5-4.47-3.08-5-2.06-8-1.27-.26-2.59 2.26-1.33 31 .65 49-2.66 14 .92 12 2.03 15 4.99 13 8.23 9.2 9.17 8.12 14 3.5 17-1.5 18-3.02 9-4.01 8-6.16 8-6.13 5.79-15 9.4-9 3.1-11 2.04-18 .04-17-3.82-1.28.45.07 41 2.14 22 2.07 5.19 3.54 4.81 5.74 4 8.72 2.49 1.53 1.51zm1-224.35-1.46-1.17-4.41-13-7.8-17-12.92-22-91.41-128.22.87 84.22 2.98 35 3.03 11 4.12 7.33 8 6.69 9 2.33 1.87 2.65-1.87 1.53-39-1.76-26 1.69-2-.08-2.64-2.38 1.64-2.36 8.48-3.64 4.6-5 4.24-10 1.67-11-.06-61-.74-3-2.29-3-10.21-6 8.31-5.59 4.14-5.41 1.01-6-.05-47-1.95-14-4.15-6.84-5.04-4.16-6.96-3.15-10-.23-1.66-1.62 1.66-2.15 5-2.37 6-.67 41 1.65 24-2.72 1.39 2.26-6.39 5.63-1.28 4.37 1.07 7 2.01 4 74.2 101.19.17-56.19-1.02-26-1.8-16-3.26-10-4.63-6-5.46-3.23-10-1.14-1.44-1.63 2.44-2.54 5-1.32 36 1.14 22-2.09 3.03.81.33 2-1.36 1.37-8.81 3.63-6.19 6.25-3.09 6.75-2.03 14-.66 27 .74 25 1.67 4 2.68 3 8.07 5-9.38 6.62-3.08 6.38-.04 42 2.15 83zm-684 225.93-9 .31-1.68-2.41.68-1.23 9-2.53 4.95-3.24 4.12-5 2.3-6 1.95-20-1.17-51-2.15-5.52-4.49-3.48-5.51-1.07-8 1.2-1.6-1.13 3.6-4.51 13.96-9.49 3.44-6-.1-46-2.3-13.86-2.84-6.14-3.16-3.72-6.2-4.28-5.39-2-10.41-.47-1.6-1.53.23-1 3.37-2.42 3-.38 30 .32 115-2.4 1.12 1.88-3.12 7.48-1.08 6.52.79 23-1.15 13-1.44 5-2.12 1.75-2.43-1.75-1.38-10-4.92-12-5.01-7-7.26-6.12-9-3.96-12-2.12-30-.75-1.35.95.57 76 .78.86 20 .11 10.23-.97 7.51-2 5.26-2.79 4.28-4.21 3.31-6 2.34-8 1.07-1.36 2-.13 1.57 2.49.25 4-2.06 27 2.97 25-1.03 9-2.7 2.55-1.89-1.55-.89-7-3.05-9-5.14-7-4.03-3.18-5-2.18-10-1.74-25.64.1 1.19 76 .49 3 2.96 3.07 16 1.12 22-2 9-2.16 9-3.77 9.53-7.26 6.72-9 7.75-16.04 3.1-10.96 2.9-1.93 2 1.32.77 2.61-2.55 38 .34 24-2.56.93-20-.99-92 1.37zm349-5.91-7-.16-1.46-1.03-.02-2 2.48-1.53 6-1.21 5.67-3.26 5.55-7 2.3-8 1.08-18-.92-47-1.68-4.93-4.47-4.07-6.53-1.51-7 1.21-1.61-1.7 3.61-3.61 12.6-8.39 3.5-4 1.13-3-.01-44-2.05-13-2.8-6-3.27-4-8.28-5-12.82-1.49-.56-2.51 1.56-1.38 5-1.14 25 .7 73-.96 33-1.39 7 .65.42 2.52-2.66 7-.79 6 .39 27-2.01 12-2.35 2.02-2.5-2.02-1.5-10.97-4-9.51-6-7.97-7-5.79-9-3.79-14-2.11-25.33.14-.19 71 1.52.96h22l14-2.63 8-5.73 4-6.21 2.16-6.39 2.84-1.24 1.89 3.24-2.37 27 2.57 27-.77 7-1.32 2.13-2 .68-1.73-1.81-1.11-9-3.14-8-4.63-6-4.39-3.3-9-2.92-28.12-.78.23 75 .74 5 2.15 2.34 13 1.63 26-1.93 14-4.81 7.87-5.23 8.13-9.03 7.16-12.97 5.33-17 1.51-1.65 2-.04 1.58 1.69.39 3-2.62 39 .8 22-2.15 1.48-16-1.31-97 .35zm-101-251.15-19-.71-18-3.96-15-6.01-18-11.8-19.38-19.56-10.24-14-8.71-17-5.67-18.01-2.97-5.99-4.03-4.13-8-3.36-1.36-1.51 7.98-5 5.38-6.24 2.68-6.76 1.85-10 5.98-19 9.86-18 10.14-13 12.49-11.51 11-7.02 11-4.81 16-4.05 15-1.11 15 1.07 12 1.98 20 5.76 5-1.11 5-3.72 2-.07 1.59 1.59-1.15 49-1.07 6-6.14 13-8.23 7.71-7 3.06-3.51-.77 7.75-7 4-7 1.93-6 1.13-8-.3-8.71-3.83-12.29-5.58-7-7.79-6-9.8-4.02-11-2.03-14 .82-7.89 2.23-8.08 4-7.54 6-7.76 9-5.18 9-4.93 13-3.02 12-2.06 16-.03 22 2.2 16 6.08 21 7.14 15 7.88 11 9.19 9.19 10.27 6.81 15.73 6.11 12 1.56 12-.46 16-5.02 11-7.16 9.17-10.03 6.93-14 3.31-15 1.59-1.75 2.44.75 1.21 4 .07 18-2.23 20-1.49 4-12 9.35-16 8.01-16 4.12zm20 254.05-25 .16-12-1.79-14-4.24-11-4.76-10-5.9-10.84-8.56-7.97-8-7.82-10-6.05-10-5.74-13-3.04-10-3.42-22 .21-15 2.13-14 5.92-19 5.29-11 7.78-12 7.93-9 9.62-8.45 7-4.82 12-6.18 16-4.83 23-2.15 21 1.95 25 5.73 6 .2 5-1.19 5-4.62 2-.14 1.74 2.5-1.05 18 .2 29-1.33 10-2.56 3.33-2-.2-1.36-2.13-.32-10-3.3-10-5.02-7.93-7-7.18-9-6-10-3.94-10-2.07-11-.3-9 1.15-9.78 3.27-5.22 2.83-8 6.55-7.15 8.62-5.18 9-7.08 22-1.88 11-1 24 1.83 17 3.21 14 6.16 16 7.86 13 7.23 8.28 10 7.88 13 5.94 16.91 2.9 12.09-.79 11.63-3.21 10.37-5.79 8.01-7.21 7.23-10 2.99-6 4.25-16 2.52-.82 1.7 1.82.66 6-.87 17-2.79 20-11.7 8.52-14 6.83-9 3.09zm316-1.81-41-2.62-35 1.11-3-.5-.8-1.27 1.8-2.57 6.7-1.43 6.27-4 4.03-6.22 2.06-6.78 1.29-18-.98-47-3.19-6-7.36-5 .18-1.18 8-6.48 2.03-4.34.62-43-1.46-16-3.16-9-3.37-4-5.66-4.08-12-3.08-.68-1.84 1.68-1.49 50 .68 31-.95 2 .44.81 1.32-1.81 2.58-6.7 1.42-5.3 2.89-5.28 7.11-2.88 11-.96 24 .96 33 2.16 4.38 6.67 6.62-6.93 6-2.15 5-.7 37 1.92 27 2.19 7.7 3.82 6.3 5.18 4.07 11 3.42.4 2.51zm-759.4-318.28 5.19-10 5.67-8 6.94-8 14.72-14-24.09-105-10.03-33.16-9 25.16-37.61 117 17.61 9.82 10 6.82 9.76 8.36 9.41 11 .83.7zm487.08-167 9.06-2 8.26-3.89 8.76-7.11 5.46-6 3.91-6 4.14-10 1.85-9 .06-7-2-11-2.8-7-4.25-7-6.3-7-7.56-6-7.27-4.01-8-2.69-9-.6-6 1.02-8.03 3.28-15.05 13-12.22 17-1.99 6-.99 12 1.99 10 3.29 7.85 13 14.46 16 9.92 9 1.9zm-284.33 125 11.65-2.92 8-3.94 7.91-6.14 5.32-6 5.05-10 2.76-11 .46-11-1.08-9-3.08-9-4.05-7-7.29-7.23-6.1-3.77-7.9-3.22-11-2.22-20 .73-1.04.71-.55 27 1.22 64 6.37.98zm653.12 274 9.53-2.93 6.59-4.07 5.41-5.12 5.28-7.88 3.72-9.3 2.09-11.7.04-17-1.13-6.2-2.61-8.8-4.18-8-4.97-6-5.24-4.07-8-4.09-7-1.86-18-.24-1.22 1.26-.94 24 .84 70 1.32 1.3 7 1.2zm-256.47 229.33-4-.79-5.46-5.54-2.66-7-.16-8 1.19-6 5.68-12 11.82-15 14.59-13.19 22-15.25 32-15.99 23-7.93 28-6.11 26-2.25 29 1.24 19 3.03 21 6.03 18 8.99 7 5.19 6.76 7.24 4.47 7 1.88 5 1.34 8-.65 9-3.26 9-3.54 4.79-6 5.57-8 3.99-8 1.59-9-.59-10-4.68-4-3.69-3.25-4.98-1.66-10 1.5-6 2.92-4 4.49-3.34 4-1.15 5 .44 4.61 3.05 1.32 4-.87 3-3.06 2.33-5-.1-1.64 4.77.61 3 3.03 4.01 8 3.61 9-1.15 5.88-3.47 5.28-7 1.94-7-.55-9-3.28-8-6.27-7.37-9-6.76-7.05-3.87-15.95-6.1-13-3.14-22-2.99-30 .14-16.66 2.09-18.34 3.95-26.41 9.05-18.59 8.88-20 11.93-22.29 17.19-15.97 17-7.06 12-2 7v6l1.21 4 3.83 5zm-55 0-3 .66-1.44-.99 3.85-6 1.09-4-.16-6-3.2-9-10.14-13.41-17-15.67-20-13.98-19.28-10.94-24.76-11-22.96-7.15-31-5.1-17-.78-18 .95-14 2-16 3.93-11.44 4.15-9.56 4.89-8.04 6.11-5.08 6-3.12 7-.76 8.12 2.8 7.88 4.2 4.53 6 2.72 8 .36 5.83-2.61 3.44-6-1.27-4.08-5 .14-2.63-2.06-.74-3 .96-3 2.41-2.35 5-1.31 4 .55 4.73 3.11 3.55 5 .95 4-.9 8-2.84 5-3.49 3.64-9 4.62-8 .85-6-.79-6-2.16-7.15-5.16-4.42-5-2.63-5-1.75-9 .76-8 5.91-12 10.28-10.34 16-9.13 21-6.83 25-4.21 26-1.18 27 2.23 21 4.16 30 9.98 29 13.98 21 13.95 16 13.71 13.33 15.68 4.09 7 2.93 9 .47 9-1.46 6-3.22 5zm41.5-461.33 20.4-20-25.9-76.33-23.1 70.33 17.1 15.68 10 10.61zm-15.5 429.41-5.8-14.41-9.2-12.49-12-9.53-12.34-4.98.34-1.21 15-5.48 10-7.8 8.07-11.51 4.49-14 1.44-1.1 5 14.78 7.61 11.32 12.39 9.26 13.31 4.74-1.31 1.65-12.23 5.35-11.79 10-6.98 10.48zm-592.44-66.41 1.7-30 1.32-88 1.15-7 1.84-4 3.43-3.92 5.61-4.08-7.61-5.05-4.2-7.95-3.31-71-.35-4-1.14-1.43-1.37 73.43-2.99 9-4.64 4.68-4.61 2.32 7.91 6 3.23 6 1.12 5 2.35 120.56zm741.44-243.12-7.03-9.88-5.04-4-7.94-4 6.01-2.78 6.59-5.22 4.42-6 2.99-6.48 3.99 8.48 3 4 5.01 4.03 7.77 3.97-11.77 6.99zm-721-139.51-3.79-8.37-3.04-4-4.87-4-5.88-3 .58-1.17 7-3.76 3-3.19 3.49-5.88 2.51-8.04 1 .19 3 8.72 3 4.76 10.51 8.37-5.51 2.99-5.26 5.01zm573.12 422.63 5.25-8 8.35-7-7.72-4.65-7-9.53-2.71 5.18-3.53 4-7.82 5 8.06 6.22 3.26 3.78 2.74 5.61zm11.88-415.71-6-8.71-7.51-4.58-.04-1 4.55-2.54 3.29-3.46 4.71-9.76 5.85 10.76 6.96 5-.14 1-3.67 1.82-4 3.86zm-637.34-25.29 9.55-25 12.1-37 6.9-23 .57-3-.78-.38-22 64.54-7.23 22.84.23 1.32zm625.88-168 7.16-7-.7-.88-4.66 2.88-2.94 5 .6.73z" fill-rule="evenodd"/></svg>